<svg width="256" height="256" viewBox="0 0 256 256" fill="none" xmlns="http://www.w3.org/2000/svg">
<rect width="256" height="256" rx="27" fill="white"/>
<path d="M186.705 18.0017C181.637 17.9045 177.467 21.9385 177.37 26.9932C177.37 27.868 177.491 28.6943 177.709 29.5205L160.786 43.3236C159.573 42.6918 158.191 42.303 156.737 42.2787C153.197 42.2058 150.093 44.1499 148.469 47.0417L126.041 44.806C124.853 39.3625 120.029 35.2799 114.234 35.2799C107.542 35.2799 102.111 40.7234 102.111 47.4305C102.111 54.1377 107.542 59.5812 114.234 59.5812C119.18 59.5812 123.423 56.5921 125.314 52.3151L147.741 54.5508C148.105 55.6687 148.687 56.7136 149.414 57.5885L143.232 70.0307C142.529 69.9092 141.85 69.812 141.122 69.812C134.018 69.812 128.248 75.5957 128.248 82.716C128.248 89.8362 134.018 95.6199 141.122 95.6199C148.226 95.6199 153.997 89.8362 153.997 82.716C153.997 79.0222 152.445 75.7172 149.972 73.36L156.155 60.942C156.155 60.942 156.325 60.9663 156.421 60.9663C161.586 61.0635 165.829 56.9566 165.926 51.8048C165.926 50.8813 165.78 50.0065 165.562 49.1559L182.486 35.3528C183.674 35.936 184.983 36.3249 186.389 36.3492C191.457 36.4464 195.627 32.4124 195.724 27.3577C195.821 22.303 191.796 18.0989 186.753 18.0017H186.705Z" fill="#3A7239"/>
<path d="M44.8923 126.75C50.3557 126.75 54.7846 122.31 54.7846 116.835C54.7846 111.359 50.3557 106.92 44.8923 106.92C39.4289 106.92 35 111.359 35 116.835C35 122.31 39.4289 126.75 44.8923 126.75Z" fill="#459743"/>
<path d="M193.447 141.962C197.397 141.962 200.599 138.753 200.599 134.793C200.599 130.834 197.397 127.625 193.447 127.625C189.497 127.625 186.294 130.834 186.294 134.793C186.294 138.753 189.497 141.962 193.447 141.962Z" fill="#1D3962"/>
<path d="M159.016 176.908C162.631 176.908 165.562 173.97 165.562 170.346C165.562 166.723 162.631 163.785 159.016 163.785C155.4 163.785 152.469 166.723 152.469 170.346C152.469 173.97 155.4 176.908 159.016 176.908Z" fill="#0E4A79"/>
<path d="M41.2312 144.368C44.6726 144.368 47.4624 141.572 47.4624 138.123C47.4624 134.674 44.6726 131.877 41.2312 131.877C37.7898 131.877 35 134.674 35 138.123C35 141.572 37.7898 144.368 41.2312 144.368Z" fill="#61B546"/>
<path d="M82.3524 166.433C86.7713 166.433 90.3535 162.843 90.3535 158.414C90.3535 153.985 86.7713 150.394 82.3524 150.394C77.9335 150.394 74.3513 153.985 74.3513 158.414C74.3513 162.843 77.9335 166.433 82.3524 166.433Z" fill="#61B546"/>
<path d="M97.2126 69.8123C96.7761 69.8123 96.3882 69.8852 95.9518 69.9338L82.3984 42.9595C84.2895 40.9667 85.4776 38.2693 85.4776 35.2803C85.4776 29.1077 80.483 24.126 74.3488 24.126C68.2146 24.126 63.2199 29.132 63.2199 35.2803C63.2199 41.4285 68.2146 46.4345 74.3488 46.4345C74.8094 46.4345 75.2458 46.3616 75.6823 46.2887L89.2357 73.2631C87.6355 74.9885 86.5929 77.1999 86.3504 79.6787L78.5191 81.72C75.5853 75.8877 69.5966 71.8293 62.638 71.8293C52.77 71.8293 44.7931 79.8488 44.7931 89.7151C44.7931 99.5814 52.7942 107.601 62.638 107.601C72.4818 107.601 80.483 99.5814 80.483 89.7151C80.483 89.4721 80.4102 89.229 80.4102 88.986L88.1931 86.969C90.157 89.8366 93.4545 91.7321 97.1883 91.7321C103.226 91.7321 108.123 86.8232 108.123 80.7722C108.123 74.7212 103.226 69.8123 97.1883 69.8123H97.2126Z" fill="#459743"/>
<path d="M78.2552 172.218C75.7094 172.218 73.309 172.825 71.1269 173.822L64.7987 165.583C66.1323 163.639 66.9081 161.282 66.9081 158.73C66.9081 155.377 65.5504 152.315 63.344 150.128L67.5385 141.817C68.2901 141.963 69.066 142.06 69.8419 142.06C77.0914 142.06 82.9589 136.179 82.9589 128.913C82.9589 121.647 77.0914 115.766 69.8419 115.766C62.5924 115.766 56.7249 121.647 56.7249 128.913C56.7249 132.68 58.3251 136.033 60.8467 138.439L56.6279 146.799C56.0217 146.701 55.4398 146.604 54.8094 146.604C48.1176 146.604 42.6865 152.048 42.6865 158.755C42.6865 165.462 48.1176 170.905 54.8094 170.905C56.2399 170.905 57.5735 170.614 58.8343 170.176L65.2109 178.487C62.7621 181.428 61.2346 185.17 61.2346 189.301C61.2346 198.73 68.8478 206.361 78.2552 206.361C87.6626 206.361 95.2757 198.73 95.2757 189.301C95.2757 179.873 87.6626 172.242 78.2552 172.242V172.218Z" fill="#61B546"/>
<path d="M146.335 196.203C143.449 196.203 140.831 197.272 138.746 198.973L129.848 193.263C130.211 192.048 130.454 190.784 130.454 189.472C130.454 189.423 130.454 189.374 130.454 189.326L139.861 186.483C141.073 187.503 142.625 188.159 144.322 188.159C148.153 188.159 151.257 185.049 151.257 181.209C151.257 177.37 148.153 174.259 144.322 174.259C141.17 174.259 138.527 176.398 137.703 179.289L128.296 182.133C125.895 178.415 121.725 175.936 116.973 175.936C109.505 175.936 103.468 181.987 103.468 189.472C103.468 192.388 104.414 195.061 105.965 197.272L92.5332 214.186C91.6846 213.943 90.8117 213.773 89.8904 213.773C84.5078 213.773 80.1436 218.147 80.1436 223.542C80.1436 228.937 84.5078 233.311 89.8904 233.311C95.2729 233.311 99.6372 228.937 99.6372 223.542C99.6372 221.841 99.1523 220.261 98.4007 218.852L111.833 201.962C113.409 202.619 115.155 202.983 116.973 202.983C120.392 202.983 123.471 201.671 125.847 199.581L134.745 205.267C134.503 206.239 134.333 207.212 134.333 208.256C134.333 214.915 139.716 220.334 146.383 220.334C153.051 220.334 158.433 214.939 158.433 208.256C158.433 201.574 153.051 196.179 146.383 196.179L146.335 196.203Z" fill="#1F90C7"/>
<path d="M207.557 172.217C205.86 172.217 204.26 172.655 202.829 173.36L188.04 159.581C188.524 158.56 188.864 157.442 189.058 156.3L201.617 154.477C203.193 156.835 205.86 158.39 208.891 158.39C213.716 158.39 217.644 154.453 217.644 149.617C217.644 144.781 213.716 140.844 208.891 140.844C204.963 140.844 201.69 143.445 200.575 147.017L187.991 148.84C185.979 144.66 181.76 141.768 176.814 141.768C169.928 141.768 164.351 147.357 164.351 154.259C164.351 159.97 168.182 164.708 173.395 166.215L174.365 199.605C169.419 201.306 165.83 205.972 165.83 211.537C165.83 218.536 171.48 224.198 178.462 224.198C185.445 224.198 191.094 218.536 191.094 211.537C191.094 205.729 187.167 200.893 181.857 199.386L180.887 165.996C181.59 165.753 182.269 165.437 182.899 165.073L197.689 178.852C197.18 180.091 196.889 181.476 196.889 182.91C196.889 188.815 201.666 193.603 207.557 193.603C213.449 193.603 218.226 188.815 218.226 182.91C218.226 177.005 213.449 172.217 207.557 172.217Z" fill="#194980"/>
<path d="M206.976 104.465C202.054 104.465 197.956 108.013 197.083 112.679L181.445 115.717C180.911 114.963 180.257 114.307 179.505 113.748L182.148 101.792C182.148 101.792 182.245 101.792 182.269 101.792C192.161 101.792 200.187 93.7483 200.187 83.8334C200.187 73.9185 192.161 65.8748 182.269 65.8748C172.377 65.8748 164.351 73.9185 164.351 83.8334C164.351 91.0752 168.667 97.2963 174.826 100.115L172.183 112.071C168.061 112.946 164.982 116.591 164.982 120.966C164.982 125.996 169.055 130.054 174.05 130.054C178.341 130.054 181.905 127.065 182.851 123.08L198.514 120.042C200.308 122.837 203.411 124.684 206.976 124.684C212.552 124.684 217.062 120.164 217.062 114.574C217.062 108.985 212.552 104.465 206.976 104.465Z" fill="#1D3962"/>
</svg>
